# xmcd
#
# Track frame offsets: 
#        183
#        11895
#        21670
#        34555
#        45788
#        58140
#        69903
#        80608
#        92453
#        102688
#        115135
#        128603
#        139893
#        151193
#        163330
#        173923
#        186173
#        200525
#        215408
#        226865
#        239488
#        253660
#        266028
#        278525
#
# Disc length: 3863 seconds
#
# Revision: 3
# Processed by: cddbd v1.5.2PL0 Copyright (c) Steve Scherf et al.
# Submitted via: ExactAudioCopy v0.99pb3
#
DISCID=510f1518
DTITLE=Lightnin' Slim - Rooster Blues - Lightnin' Slim's Bell Ringer
DYEAR=1994
DGENRE=Blues
TTITLE0=Rooster Blues
TTITLE1=Long Leanie Woman
TTITLE2=My Starter Won't Work
TTITLE3=G. I. Slim
TTITLE4=Lightnin's Troubles
TTITLE5=Bed Bug Blues
TTITLE6=Hoo-Doo Blues
TTITLE7=It's Mighty Crazy
TTITLE8=Sweet Little Woman
TTITLE9=Tom Cat Blues
TTITLE10=Feelin' Awful Blues
TTITLE11=I'm Leavin' You Baby
TTITLE12=Love Me Mama
TTITLE13=She's My Crazy Little Baby
TTITLE14=Have Mercy On Me Baby
TTITLE15=Winter Time Blues
TTITLE16=If You Ever Need Me
TTITLE17=Mean Ole Lonesome Train
TTITLE18=Baby Please Come Back
TTITLE19=Love Is Just A Gamble
TTITLE20=Sombody's Knockin'
TTITLE21=You Give Me The Blues
TTITLE22=Don't Start Me Talking
TTITLE23=You Move Me Baby
EXTD=
EXTT0=
EXTT1=
EXTT2=
EXTT3=
EXTT4=
EXTT5=
EXTT6=
EXTT7=
EXTT8=
EXTT9=
EXTT10=
EXTT11=
EXTT12=
EXTT13=
EXTT14=
EXTT15=
EXTT16=
EXTT17=
EXTT18=
EXTT19=
EXTT20=
EXTT21=
EXTT22=
EXTT23=
PLAYORDER=
